<?xml version="1.0" standalone="no"?>
<!DOCTYPE svg PUBLIC "-//W3C//DTD SVG 20010904//EN"
 "http://www.w3.org/TR/2001/REC-SVG-20010904/DTD/svg10.dtd">
<svg version="1.0" xmlns="http://www.w3.org/2000/svg"
 width="2084.000000pt" height="700.000000pt" viewBox="0 0 2084.000000 700.000000"
 preserveAspectRatio="xMidYMid meet">

<g transform="translate(0.000000,700.000000) scale(0.100000,-0.100000)"
fill="#000000" stroke="none">
<path d="M1940 6985 c-130 -42 -354 -311 -495 -593 -195 -390 -278 -748 -278
-1187 0 -265 16 -356 90 -527 114 -267 252 -445 418 -541 126 -74 282 -127
375 -127 59 -1 121 -15 131 -32 18 -28 9 -136 -21 -241 -160 -569 -572 -889
-1115 -864 -145 7 -255 28 -353 69 -156 65 -245 161 -297 321 -24 74 -27 98
-23 171 4 72 10 95 41 158 20 40 77 125 127 188 140 177 177 260 187 421 7
113 -1 133 -60 159 -253 112 -590 -154 -648 -511 -17 -99 -17 -346 0 -439 71
-402 315 -678 701 -794 179 -53 246 -61 520 -61 196 0 282 4 370 18 323 51
501 133 704 327 240 230 356 465 420 850 33 203 43 310 58 635 16 376 16 1924
0 2155 -24 327 -39 386 -102 406 -126 40 -661 68 -750 39z m211 -558 c44 -29
46 -43 55 -347 7 -261 -10 -1197 -26 -1417 -15 -203 -32 -233 -130 -233 -128
0 -263 125 -362 337 -69 148 -73 177 -73 618 0 406 7 499 45 643 52 191 179
360 308 407 61 22 143 19 183 -8z"/>
<path d="M7143 6906 c-22 -10 -34 -24 -38 -43 -4 -15 -9 -34 -11 -42 -3 -8 -9
-127 -14 -265 -5 -138 -19 -350 -30 -471 -11 -121 -20 -226 -20 -232 0 -10
-37 -13 -151 -13 -85 0 -198 -7 -258 -16 -111 -16 -252 -49 -283 -65 -22 -12
-23 -45 -4 -90 39 -92 125 -127 501 -204 l160 -33 -4 -888 c-3 -928 0 -1024
39 -1192 60 -253 160 -442 309 -585 157 -150 357 -204 508 -137 143 63 300
250 438 521 35 69 71 132 79 139 18 14 15 18 35 -65 33 -139 156 -370 245
-460 58 -59 104 -80 286 -127 102 -26 127 -29 225 -25 130 5 195 26 283 92
113 85 230 262 328 497 27 65 51 117 54 118 3 0 16 -36 29 -80 13 -43 42 -108
64 -142 62 -97 183 -210 269 -253 91 -44 151 -52 242 -31 147 35 265 118 361
254 28 39 52 71 55 72 3 0 25 -39 49 -87 90 -184 164 -278 263 -336 101 -59
343 -119 488 -121 84 -1 127 20 206 99 68 67 132 160 220 315 l59 105 3 -235
3 -235 -209 -205 c-218 -215 -324 -339 -437 -509 -236 -359 -396 -818 -412
-1186 -11 -251 42 -411 176 -538 158 -149 380 -207 789 -207 231 0 267 8 333
77 248 257 274 411 299 1758 6 319 13 603 16 631 l5 51 107 5 c120 5 188 28
217 71 20 32 12 49 -46 102 -65 59 -140 88 -237 93 l-83 5 5 41 c3 22 8 156
11 296 8 344 23 680 36 825 15 155 39 250 90 344 38 70 39 76 23 88 -10 7 -22
13 -27 13 -5 0 -58 21 -118 46 l-108 45 -3 342 c-4 389 -5 395 -84 485 -84 96
-177 149 -374 215 -74 25 -193 69 -265 99 -219 92 -290 98 -420 34 -83 -41
-215 -159 -279 -250 -189 -265 -291 -695 -341 -1426 -38 -568 -82 -747 -199
-827 -40 -27 -58 -33 -102 -33 -45 0 -59 5 -89 31 -19 17 -48 59 -64 93 -50
105 -63 186 -68 453 -6 268 2 371 44 559 16 77 23 131 19 149 -4 16 -39 59
-81 100 -93 91 -100 113 -120 389 -25 337 -51 425 -154 526 -117 114 -454 250
-694 280 -150 18 -298 -12 -413 -85 -248 -158 -406 -541 -489 -1185 -23 -179
-52 -315 -79 -369 -31 -62 -57 -145 -107 -341 -88 -350 -191 -549 -329 -642
-91 -60 -102 -60 -164 4 -59 60 -85 117 -110 239 -41 203 -53 559 -37 1164 21
818 34 919 117 967 42 25 232 45 536 58 267 12 349 22 368 45 20 24 2 64 -51
116 -82 80 -163 97 -590 124 -130 8 -251 15 -268 15 l-31 0 0 118 c0 156 17
454 35 626 20 181 20 181 -12 215 -74 80 -432 167 -520 127z m4767 -1663 c67
-45 151 -129 170 -169 70 -144 4 -967 -114 -1425 -66 -259 -137 -400 -265
-530 -90 -92 -170 -135 -226 -125 -54 10 -116 64 -147 126 -83 166 -100 882
-32 1350 32 223 160 522 278 648 45 49 79 71 165 108 85 38 134 42 171 17z
m-2375 -73 c129 -62 216 -250 215 -463 -1 -55 -7 -99 -19 -132 -11 -27 -26
-69 -35 -92 -26 -69 -53 -225 -85 -484 -76 -613 -148 -842 -310 -992 -98 -91
-204 -120 -272 -74 -103 69 -159 255 -181 600 -30 494 66 1140 209 1396 64
115 169 211 271 247 58 21 159 17 207 -6z m2581 -3525 c-2 -286 -9 -547 -16
-595 -65 -504 -243 -778 -471 -729 -141 30 -219 200 -219 476 0 298 86 605
274 983 117 233 196 351 350 524 l71 78 8 -113 c4 -63 6 -343 3 -624z"/>
<path d="M15379 5707 c-59 -17 -88 -38 -185 -139 -146 -151 -225 -287 -299
-513 -54 -162 -85 -316 -125 -610 -67 -501 -203 -1050 -315 -1276 -56 -115
-96 -164 -149 -184 -128 -49 -207 46 -236 285 -13 109 -13 485 0 682 22 329
50 480 139 768 l60 195 -42 38 c-92 84 -210 116 -527 147 -118 12 -222 23
-232 26 -26 8 -48 78 -48 156 0 39 -5 101 -11 137 -10 53 -18 72 -46 100 l-34
34 -87 -6 c-163 -11 -240 -54 -259 -144 -4 -21 -7 -288 -5 -593 4 -598 -2
-730 -44 -995 -54 -339 -52 -384 12 -405 29 -10 39 -9 59 4 110 72 180 321
284 1004 28 183 51 335 51 337 0 3 55 5 121 5 l122 0 -6 -52 c-14 -119 -19
-805 -8 -958 52 -686 231 -1030 564 -1082 57 -8 89 -8 133 1 187 37 305 153
449 441 l57 115 18 -45 c9 -25 29 -78 44 -118 31 -81 109 -207 165 -265 108
-114 381 -205 581 -195 110 6 168 35 266 133 117 119 233 310 320 527 10 27
21 48 24 48 3 0 22 -39 44 -87 57 -132 109 -214 176 -281 100 -99 239 -152
359 -137 173 22 309 123 447 336 l68 104 12 -105 c44 -376 77 -421 349 -465
135 -22 215 -20 256 8 72 47 95 132 158 597 45 331 87 563 131 735 46 177 92
270 104 213 13 -53 26 -283 36 -603 17 -543 29 -618 117 -694 108 -96 313
-123 441 -59 64 32 82 62 92 150 27 239 182 767 344 1168 l74 184 6 -84 c3
-47 10 -229 16 -405 13 -376 24 -520 50 -633 37 -155 149 -353 259 -455 79
-72 149 -97 291 -104 176 -9 280 25 380 125 118 118 259 378 343 632 63 189
81 277 82 397 0 88 -3 105 -21 130 -46 61 -121 30 -163 -67 -12 -28 -38 -120
-57 -203 -44 -197 -66 -261 -127 -380 -107 -211 -245 -303 -347 -233 -108 73
-146 293 -137 789 6 329 9 354 79 667 55 249 62 322 35 364 -25 38 -160 136
-233 168 -33 15 -87 34 -120 42 -72 18 -285 39 -295 28 -15 -14 -158 -352
-242 -567 -68 -177 -236 -636 -334 -917 -9 -27 -20 -48 -23 -48 -4 0 -10 199
-14 443 -3 243 -9 515 -12 603 l-7 162 -106 51 c-171 83 -255 90 -359 31 -137
-79 -230 -270 -388 -798 -48 -158 -89 -293 -93 -300 -10 -18 -21 377 -21 743
0 278 -13 622 -26 714 -12 79 -24 84 -334 120 -91 11 -165 19 -166 18 -1 -1
-7 -238 -13 -527 -20 -892 -35 -1055 -118 -1299 -118 -349 -268 -523 -383
-444 -35 24 -48 41 -75 98 -40 84 -57 207 -62 470 -6 272 5 424 43 587 29 130
25 146 -61 227 -85 80 -101 128 -125 386 -30 308 -74 458 -162 542 -51 49
-369 194 -537 245 -84 26 -369 35 -442 15z m558 -549 c106 -53 184 -249 186
-468 1 -87 -2 -101 -31 -160 -38 -79 -61 -205 -97 -525 -46 -410 -100 -646
-186 -824 -82 -169 -191 -261 -308 -261 -91 0 -153 50 -197 158 -108 268 -112
953 -9 1441 75 354 220 586 408 653 69 25 168 18 234 -14z"/>
<path d="M3288 5407 c-18 -19 -24 -63 -43 -362 -56 -873 -80 -1807 -51 -1946
32 -149 90 -225 195 -255 63 -19 304 -15 358 5 51 20 69 73 157 471 75 338
159 613 241 786 44 94 58 113 71 93 4 -7 11 -179 15 -383 7 -367 15 -464 45
-581 50 -200 166 -302 353 -312 151 -8 270 28 418 127 41 27 79 50 85 50 5 0
19 -12 31 -27 92 -114 199 -175 390 -223 168 -42 282 -53 485 -47 146 4 195 9
282 31 199 50 354 147 411 256 20 37 24 60 24 130 0 76 -3 93 -33 151 -41 85
-159 200 -447 436 -263 215 -354 298 -410 378 -62 87 -78 133 -79 240 -1 83 2
96 31 156 60 121 172 197 304 207 91 6 146 -10 227 -69 114 -84 166 -77 278
35 95 97 118 146 122 262 5 132 -11 200 -58 245 -49 47 -114 69 -222 76 -268
17 -757 -127 -1006 -296 -182 -124 -286 -315 -285 -526 0 -109 20 -187 79
-316 52 -114 54 -138 15 -167 -34 -25 -62 -100 -87 -231 -43 -229 -143 -436
-246 -511 -72 -52 -154 -36 -192 39 -27 51 -36 178 -46 616 -15 663 -30 806
-92 900 -71 108 -216 155 -324 106 -114 -52 -262 -307 -444 -765 l-87 -219 -6
599 c-7 713 -7 714 -102 770 -110 64 -321 106 -357 71z m2342 -1618 c363 -304
514 -449 559 -536 18 -34 13 -114 -8 -149 -41 -67 -163 -97 -287 -71 -92 20
-151 50 -304 156 -69 48 -148 101 -176 119 -64 40 -96 74 -97 104 0 13 12 68
26 123 20 77 87 395 87 413 0 8 33 -19 200 -159z"/>
</g>
</svg>
